<svg width="26" height="26" viewBox="0 0 26 26" fill="none" xmlns="http://www.w3.org/2000/svg">
<g clip-path="url(#clip0_0_31857)">
<path d="M25.3604 10.7047C25.0972 9.5811 24.0567 8.90695 23.0538 9.21594L16.3971 11.2103L8.33245 2.79047C7.97303 2.41522 7.43415 2.27212 6.93592 2.41962C6.10106 2.66679 5.6972 3.61263 6.09608 4.38657L10.5177 12.9659L4.28723 14.8339L2.26849 13.0659C1.988 12.8202 1.60076 12.7363 1.24375 12.8439C0.596618 13.0389 0.284827 13.773 0.593837 14.3741L2.28145 17.6569L3.24673 19.5249L5.25251 18.921L11.9092 16.9266L17.3624 15.2974L24.0191 13.303C25.0345 12.98 25.6237 11.8283 25.3604 10.7047Z" fill="#328CFF"/>
<path fill-rule="evenodd" clip-rule="evenodd" d="M23.6307 7.81708C24.6336 7.50809 25.6741 8.18225 25.9373 9.30584C26.2006 10.4294 25.6114 11.5811 24.596 11.9041L17.9393 13.8985L12.4861 15.5277L5.8294 17.5221L3.82362 18.126L2.85834 16.2581L1.17073 12.9753C0.861715 12.3742 1.17351 11.6401 1.82064 11.4451C2.17764 11.3375 2.56489 11.4213 2.84538 11.667L4.86412 13.435L11.0946 11.5671L6.67296 2.98772C6.27409 2.21377 6.67794 1.26793 7.51281 1.02077C8.01103 0.873267 8.54992 1.01637 8.90933 1.39161L16.974 9.81145L23.6307 7.81708ZM2.77615 21.2859C2.06039 21.2859 1.48015 21.8662 1.48015 22.5819V22.7989C1.48015 23.5147 2.06039 24.0949 2.77615 24.0949H23.8569C24.5727 24.0949 25.1529 23.5147 25.1529 22.7989V22.5819C25.1529 21.8662 24.5727 21.2859 23.8569 21.2859H2.77615Z" fill="white"/>
</g>
<defs>
<clipPath id="clip0_0_31857">
<rect width="26" height="26" fill="white"/>
</clipPath>
</defs>
</svg>
